<svg viewBox="0 0 256 256" fill="none" xmlns="http://www.w3.org/2000/svg">
    <path d="M132.438 235.84C85.3975 235.84 50.5175 207.68 47.9575 166.72L77.3975 159.04C78.6775 188.48 101.398 209.6 133.078 209.6C158.678 209.6 178.518 195.52 178.518 175.68C178.518 126.08 56.9175 143.36 56.9175 75.84C56.9175 41.92 87.6375 20.16 126.678 20.16C166.358 20.16 196.438 42.56 200.278 75.84L170.838 84.16C168.278 62.4 152.278 45.76 126.678 45.76C104.918 45.76 85.7175 57.28 85.7175 74.56C85.7175 119.04 207.958 104.96 207.958 175.68C207.958 211.2 177.558 235.84 132.438 235.84Z" fill="#090401"/>
    <style>
        path { fill: #090401; }
        @media (prefers-color-scheme: dark) {
            path { fill: #FFF5EF; }
        }
    </style>
</svg>